<?xml version="1.0" ?>
<!-- Uploaded to: SVG Repo, www.svgrepo.com, Generator: SVG Repo Mixer Tools -->
<svg fill="#000000" width="800px" height="800px" viewBox="0 0 64 64" id="Layer_1_1_" version="1.1" xml:space="preserve" xmlns="http://www.w3.org/2000/svg" xmlns:xlink="http://www.w3.org/1999/xlink">
<g>
<path d="M54.414,14c-1.291-1.289-3.537-1.289-4.828,0l-0.639,0.639C48.714,14.872,48.404,15,48.074,15h-0.148   c-0.33,0-0.64-0.128-0.873-0.362l-0.69-0.689C46.129,13.714,46,13.404,46,13.074c0-0.377,0.169-0.729,0.464-0.964l0.574-0.459   C47.649,11.161,48,10.431,48,9.648c0-0.675-0.273-1.336-0.751-1.813L45.414,6c-1.291-1.289-3.537-1.29-4.828,0l-1.356,1.357   C38.437,8.148,38,9.202,38,10.345c0,0.57,0.114,1.126,0.339,1.652c1.868,4.358,5.283,7.819,9.615,9.744l2.021,0.897   C50.514,22.878,51.087,23,51.678,23c1.119,0,2.172-0.436,2.965-1.228L56,20.415c0.645-0.645,1-1.502,1-2.415s-0.355-1.77-1-2.414   L54.414,14z M54.586,19l-1.356,1.357c-0.636,0.633-1.624,0.819-2.442,0.453l-2.021-0.898c-3.87-1.72-6.921-4.811-8.589-8.703   C40.06,10.934,40,10.643,40,10.322c0-0.586,0.229-1.136,0.643-1.55L42,7.415C42.268,7.147,42.622,7,43,7s0.732,0.147,1,0.414   l1.835,1.835C45.939,9.354,46,9.5,46,9.648c0,0.172-0.077,0.333-0.212,0.441l-0.573,0.459C44.442,11.165,44,12.085,44,13.074   c0,0.864,0.336,1.676,0.947,2.288l0.69,0.689C46.249,16.663,47.062,17,47.926,17h0.148c0.864,0,1.677-0.337,2.287-0.947L51,15.415   c0.535-0.535,1.465-0.535,2,0L54.586,17C54.854,17.267,55,17.622,55,18S54.854,18.733,54.586,19z"/>
<path d="M19.469,51.439l2.365-1.351c0.227,0.104,0.455,0.2,0.685,0.286L23.236,53h5.527l0.718-2.625   c0.229-0.086,0.458-0.182,0.685-0.286l2.365,1.351l3.908-3.908l-1.351-2.365c0.104-0.227,0.2-0.455,0.286-0.685L38,43.764v-5.527   l-2.625-0.718c-0.086-0.229-0.182-0.458-0.286-0.685l1.351-2.365l-3.908-3.908l-2.366,1.35c-0.226-0.104-0.454-0.2-0.684-0.286   L28.764,29h-5.527l-0.718,2.625c-0.229,0.086-0.458,0.181-0.684,0.286l-2.366-1.35l-3.908,3.908l1.351,2.365   c-0.104,0.227-0.2,0.455-0.286,0.685L14,38.236v5.527l2.625,0.718c0.086,0.229,0.182,0.458,0.286,0.685l-1.351,2.365L19.469,51.439   z M16,42.236v-2.473l2.193-0.601l0.161-0.524c0.143-0.462,0.335-0.923,0.572-1.37l0.258-0.485l-1.13-1.98l1.748-1.748l1.979,1.129   l0.486-0.257c0.449-0.237,0.91-0.43,1.37-0.572l0.524-0.161L24.764,31h2.473l0.601,2.193l0.524,0.161   c0.46,0.143,0.921,0.335,1.37,0.572l0.486,0.257l1.979-1.129l1.748,1.748l-1.13,1.98l0.258,0.485   c0.237,0.447,0.43,0.908,0.572,1.37l0.161,0.524L36,39.764v2.473l-2.193,0.601l-0.161,0.524c-0.143,0.462-0.335,0.923-0.572,1.37   l-0.258,0.485l1.13,1.98l-1.748,1.748l-1.98-1.13l-0.485,0.258c-0.447,0.237-0.908,0.43-1.37,0.572l-0.524,0.161L27.236,51h-2.473   l-0.601-2.193l-0.524-0.161c-0.462-0.143-0.923-0.335-1.37-0.572l-0.485-0.258l-1.98,1.13l-1.748-1.748l1.13-1.98l-0.258-0.485   c-0.237-0.447-0.43-0.908-0.572-1.37l-0.161-0.524L16,42.236z"/>
<path d="M26,47c3.309,0,6-2.691,6-6s-2.691-6-6-6s-6,2.691-6,6S22.691,47,26,47z M26,37c2.206,0,4,1.794,4,4s-1.794,4-4,4   s-4-1.794-4-4S23.794,37,26,37z"/>
<path d="M60,1H34c-1.654,0-3,1.346-3,3v8H20c-1.39,0-2.551,0.954-2.89,2.239C10.864,17.552,7,23.921,7,31v5.08   C3.614,36.568,1,39.481,1,43v4c0,3.859,3.141,7,7,7h5V36H9v-5c0-6.068,3.171-11.56,8.354-14.617C17.856,17.339,18.847,18,20,18h11   v6c0,1.654,1.346,3,3,3h8.515C42.831,28.303,43,29.644,43,31v5h-4v18h1.899c-0.465,2.279-2.484,4-4.899,4h-5.142   c-0.447-1.721-1.999-3-3.858-3h-4c-2.206,0-4,1.794-4,4s1.794,4,4,4h4c1.859,0,3.411-1.279,3.858-3H36c3.519,0,6.432-2.614,6.92-6   H44c3.859,0,7-3.141,7-7v-4c0-3.519-2.614-6.432-6-6.92V31c0-1.352-0.143-2.692-0.424-4H47v5.804L56.287,27H60c1.654,0,3-1.346,3-3   V4C63,2.346,61.654,1,60,1z M11,52H9V40H7v11.899C4.721,51.434,3,49.414,3,47v-4c0-2.757,2.243-5,5-5h3V52z M27,61h-4   c-1.103,0-2-0.897-2-2s0.897-2,2-2h4c1.103,0,2,0.897,2,2S28.103,61,27,61z M49,43v4c0,2.414-1.721,4.434-4,4.899V40h-2v12h-2V38h3   C46.757,38,49,40.243,49,43z M25,14v2h-2v-2H25z M19,15c0-0.551,0.448-1,1-1h1v2h-1C19.448,16,19,15.551,19,15z M27,16v-2h4v2H27z    M61,24c0,0.551-0.448,1-1,1h-4.287L49,29.196V25H34c-0.552,0-1-0.449-1-1V4c0-0.551,0.448-1,1-1h26c0.552,0,1,0.449,1,1V24z"/>
</g>
</svg>