<svg width="42" height="42" viewBox="0 0 42 42" fill="none" xmlns="http://www.w3.org/2000/svg">
<g clip-path="url(#clip0_10_30)">
<path d="M39.375 3.93291L28.8658 3.93295V1.31714C28.8658 0.591982 28.2785 0.00463867 27.5533 0.00463867C26.8282 0.00463867 26.2408 0.591982 26.2408 1.31714V3.93229H15.7408V1.31714C15.7408 0.591982 15.1535 0.00463867 14.4283 0.00463867C13.7032 0.00463867 13.1158 0.591982 13.1158 1.31714V3.93229H2.625C1.17534 3.93229 0 5.10764 0 6.55729V39.3698C0 40.8194 1.17534 41.9948 2.625 41.9948H39.375C40.8247 41.9948 42 40.8194 42 39.3698V6.55729C42 5.10825 40.8247 3.93291 39.375 3.93291ZM39.375 39.3698H2.625V6.55729H13.1158V7.87964C13.1158 8.60475 13.7032 9.19214 14.4283 9.19214C15.1535 9.19214 15.7408 8.60475 15.7408 7.87964V6.55795H26.2408V7.88029C26.2408 8.60545 26.8282 9.19279 27.5533 9.19279C28.2785 9.19279 28.8658 8.60545 28.8658 7.88029V6.55795H39.375V39.3698ZM30.1875 20.9954H32.8125C33.537 20.9954 34.125 20.4074 34.125 19.6829V17.0579C34.125 16.3334 33.537 15.7454 32.8125 15.7454H30.1875C29.463 15.7454 28.875 16.3334 28.875 17.0579V19.6829C28.875 20.4074 29.463 20.9954 30.1875 20.9954ZM30.1875 31.4948H32.8125C33.537 31.4948 34.125 30.9074 34.125 30.1823V27.5573C34.125 26.8328 33.537 26.2448 32.8125 26.2448H30.1875C29.463 26.2448 28.875 26.8328 28.875 27.5573V30.1823C28.875 30.9081 29.463 31.4948 30.1875 31.4948ZM22.3125 26.2448H19.6875C18.963 26.2448 18.375 26.8328 18.375 27.5573V30.1823C18.375 30.9074 18.963 31.4948 19.6875 31.4948H22.3125C23.037 31.4948 23.625 30.9074 23.625 30.1823V27.5573C23.625 26.8334 23.037 26.2448 22.3125 26.2448ZM22.3125 15.7454H19.6875C18.963 15.7454 18.375 16.3334 18.375 17.0579V19.6829C18.375 20.4074 18.963 20.9954 19.6875 20.9954H22.3125C23.037 20.9954 23.625 20.4074 23.625 19.6829V17.0579C23.625 16.3328 23.037 15.7454 22.3125 15.7454ZM11.8125 15.7454H9.1875C8.463 15.7454 7.875 16.3334 7.875 17.0579V19.6829C7.875 20.4074 8.463 20.9954 9.1875 20.9954H11.8125C12.537 20.9954 13.125 20.4074 13.125 19.6829V17.0579C13.125 16.3328 12.537 15.7454 11.8125 15.7454ZM11.8125 26.2448H9.1875C8.463 26.2448 7.875 26.8328 7.875 27.5573V30.1823C7.875 30.9074 8.463 31.4948 9.1875 31.4948H11.8125C12.537 31.4948 13.125 30.9074 13.125 30.1823V27.5573C13.125 26.8334 12.537 26.2448 11.8125 26.2448Z" fill="#005F15"/>
</g>
<defs>
<clipPath id="clip0_10_30">
<rect width="42" height="42" fill="white"/>
</clipPath>
</defs>
</svg>
