<svg width="35" height="35" viewBox="0 0 35 35" fill="none" xmlns="http://www.w3.org/2000/svg">
<path d="M3.09169 19.7254C4.17377 26.6977 10.2404 32.0775 17.5015 32.0775C25.5209 32.0775 32.0819 25.5164 32.0819 17.497C32.0819 9.47767 25.5223 2.91663 17.5029 2.91663C12.6934 2.91663 8.46127 5.25142 5.83335 8.74996V2.91808L2.92106 2.91663L2.91669 13.125H13.125V10.2083L8.45981 10.2068C10.5 7.58475 13.8571 5.83329 17.5029 5.83329C23.9167 5.83329 29.1667 11.0833 29.1667 17.497C29.1667 23.9108 23.9167 29.1622 17.5015 29.1622C11.8461 29.1622 7.10065 25.0877 6.05502 19.7254H3.09169Z" fill="#005F15"/>
<path d="M16.0446 10.2069V17.939L20.7127 24.2054L23.046 22.4598L18.9612 17.0625V10.2069H16.0446Z" fill="#005F15"/>
</svg>
