<?xml version="1.0" ?>

<!-- Uploaded to: SVG Repo, www.svgrepo.com, Generator: SVG Repo Mixer Tools -->
<svg fill="#000000" width="800px" height="800px" viewBox="0 0 512 512" version="1.1" xml:space="preserve" xmlns="http://www.w3.org/2000/svg" xmlns:xlink="http://www.w3.org/1999/xlink">

<g id="Factory">

<g id="XMLID_1612_">

<path d="M2,236.601V467h112.309l28.713-265.268L2,236.601z M90,370.037c0,5.502-4.46,9.963-9.963,9.963H36.963    C31.46,380,27,375.54,27,370.037v-76.075c0-5.502,4.46-9.963,9.963-9.963h43.075c5.502,0,9.963,4.46,9.963,9.963V370.037z" id="XMLID_1615_"/>

<rect height="45" id="XMLID_1888_" width="78" x="219" y="152"/>

<rect height="141" id="XMLID_1889_" width="78" x="219" y="325"/>

<rect height="23" id="XMLID_1890_" width="98" x="209" y="45"/>

<rect height="55" id="XMLID_1891_" width="24" x="47" y="304"/>

<rect height="55" id="XMLID_1892_" width="24" x="445" y="304"/>

<path d="M373.016,202.282L401.668,467H510V236.578L373.016,202.282z M488,370.037    c0,5.502-4.46,9.963-9.963,9.963h-43.075c-5.502,0-9.963-4.46-9.963-9.963v-76.075c0-5.502,4.46-9.963,9.963-9.963h43.075    c5.502,0,9.963,4.46,9.963,9.963V370.037z" id="XMLID_1895_"/>

<path d="M350.814,186.498c0.095-0.383,0.217-0.64,0.353-1L340.623,88h-23.378H198.732h-23.377l-40.942,378H199    V314.987c0-5.502,5.005-9.987,10.506-9.987h96.964c5.502,0,10.529,4.485,10.529,9.987V466h64.564l-29.43-271.947    C350.682,191.816,350.117,189.29,350.814,186.498z M316,207.037c0,5.502-4.46,9.963-9.963,9.963h-97.075    c-5.502,0-9.963-4.46-9.963-9.963v-65.075c0-5.502,4.46-9.963,9.963-9.963h97.075c5.502,0,9.963,4.46,9.963,9.963V207.037z" id="XMLID_1898_"/>

</g>

</g>

<g id="Layer_1"/>

</svg>