<svg width="43" height="43" viewBox="0 0 43 43" fill="none" xmlns="http://www.w3.org/2000/svg">
<path d="M21.5 32.25L13.3166 20.6938C11.9771 19.1122 11.1145 17.1827 10.8292 15.1299C10.5439 13.0771 10.8478 10.9855 11.7053 9.09874C12.5628 7.21193 13.9387 5.60758 15.6728 4.47252C17.4068 3.33747 19.4277 2.71843 21.5 2.6875C24.3726 2.71589 27.1168 3.88155 29.1317 5.92918C31.1466 7.97681 32.2679 10.7395 32.25 13.6122C32.2511 16.1182 31.3979 18.5497 29.8312 20.5056L21.5 32.25ZM21.5 5.375C19.339 5.39982 17.2763 6.28119 15.7646 7.8256C14.253 9.37001 13.416 11.4512 13.4375 13.6122C13.4465 15.5846 14.1561 17.4896 15.4397 18.9872L21.5 27.5738L27.7216 18.8125C28.9042 17.3363 29.553 15.5036 29.5625 13.6122C29.584 11.4512 28.747 9.37001 27.2354 7.8256C25.7237 6.28119 23.6609 5.39982 21.5 5.375Z" fill="#005F15"/>
<path d="M21.5 14.7812C22.9843 14.7812 24.1875 13.578 24.1875 12.0938C24.1875 10.6095 22.9843 9.40625 21.5 9.40625C20.0157 9.40625 18.8125 10.6095 18.8125 12.0938C18.8125 13.578 20.0157 14.7812 21.5 14.7812Z" fill="#005F15"/>
<path d="M37.625 16.125H34.9375V18.8125H37.625V37.625H5.375V18.8125H8.0625V16.125H5.375C4.66223 16.125 3.97865 16.4081 3.47465 16.9122C2.97065 17.4162 2.6875 18.0997 2.6875 18.8125V37.625C2.6875 38.3378 2.97065 39.0213 3.47465 39.5253C3.97865 40.0294 4.66223 40.3125 5.375 40.3125H37.625C38.3378 40.3125 39.0213 40.0294 39.5253 39.5253C40.0294 39.0213 40.3125 38.3378 40.3125 37.625V18.8125C40.3125 18.0997 40.0294 17.4162 39.5253 16.9122C39.0213 16.4081 38.3378 16.125 37.625 16.125Z" fill="#005F15"/>
</svg>
