<?xml version="1.0" encoding="utf-8"?><!-- Uploaded to: SVG Repo, www.svgrepo.com, Generator: SVG Repo Mixer Tools -->
<svg width="800px" height="800px" viewBox="0 0 24 24" id="Layer_1" data-name="Layer 1" xmlns="http://www.w3.org/2000/svg"><defs><style>.cls-1{fill:none;stroke:#020202;stroke-miterlimit:10;stroke-width:1.91px;}</style></defs><path class="cls-1" d="M.55,17.73H18.2a2.39,2.39,0,0,1,2.39,2.38h0A2.39,2.39,0,0,1,18.2,22.5H.55"/><path class="cls-1" d="M2.45,17.73a3.47,3.47,0,0,1,1,2.38,3.5,3.5,0,0,1-1,2.39"/><path class="cls-1" d="M23.45,17.73H5.8a2.39,2.39,0,0,1-2.39-2.39h0A2.39,2.39,0,0,1,5.8,13H23.45"/><path class="cls-1" d="M21.55,17.73a3.46,3.46,0,0,1,0-4.78"/><path class="cls-1" d="M16.77,7.39c0,2.78-1.91,7.06-4.77,5-2.86,2-4.77-2.26-4.77-5s2.86-4,4.77-2C13.91,3.35,16.77,4.6,16.77,7.39Z"/><path class="cls-1" d="M10.09,1.5c1,0,1.91,1,1.91,2.86"/></svg>