<?xml version="1.0" ?>
<!-- Uploaded to: SVG Repo, www.svgrepo.com, Generator: SVG Repo Mixer Tools -->
<svg fill="#000000" width="800px" height="800px" viewBox="0 0 50 50" xmlns="http://www.w3.org/2000/svg">
<g id="Solid">
<path d="M37,25.95537A11.02234,11.02234,0,1,0,48,36.97768,11.02363,11.02363,0,0,0,37,25.95537Zm4.707,14.322A1.00091,1.00091,0,0,1,40.293,41.69426L37,38.39462l-3.293,3.29964a1.01563,1.01563,0,0,1-1.41406,0,1.00309,1.00309,0,0,1,0-1.41693l3.293-3.29965L32.293,33.678A1.00091,1.00091,0,0,1,33.707,32.2611L37,35.56075l3.293-3.29965A1.00091,1.00091,0,0,1,41.707,33.678l-3.293,3.29965ZM42,15.93508a3.94829,3.94829,0,0,1,.04956-.491,20.27071,20.27071,0,0,0,3.27026-.903,1.97685,1.97685,0,0,1,1.82178.23338A2.0057,2.0057,0,0,1,48,16.41946v2.96615a3.94783,3.94783,0,0,1-2,.55759A4.00865,4.00865,0,0,1,42,15.93508ZM3.98779,13.44518c.54047-.20073,1.08069-.36965,1.62085-.52359A3.99264,3.99264,0,0,1,3,19.9432a3.94633,3.94633,0,0,1-1-.14232V16.28051A3.04444,3.04444,0,0,1,3.98779,13.44518ZM8,43.99189a3.9489,3.9489,0,0,1-.05023.49771,20.08607,20.08607,0,0,0-3.26813.89671,1.985,1.985,0,0,1-1.82519-.23485A2.00567,2.00567,0,0,1,2,43.508V40.54136a3.94773,3.94773,0,0,1,2-.55759A4.00865,4.00865,0,0,1,8,43.99189ZM25,21.94725a8.01447,8.01447,0,0,0-.94733,15.971C24.03015,37.606,24,37.29565,24,36.97768A13.0321,13.0321,0,0,1,31.44507,25.218,8.026,8.026,0,0,0,25,21.94725Zm0,4.00812a4.00865,4.00865,0,0,0-4,4.00811,1,1,0,1,1-2,0,6.01267,6.01267,0,0,1,6-6.01217,1.002,1.002,0,0,1,0,2.00406ZM8,5.34516V4.11427A2.01778,2.01778,0,0,1,9.80615,2.1112c5.189-.48194,10.38819.69085,15.41309,1.824,4.80859,1.08423,9.7793,2.20466,14.59568,1.801A2.01561,2.01561,0,0,1,42,7.72608v.67006c-9.81992,1.9151-19.63647-3.51761-29.69824-3.38356A27.49122,27.49122,0,0,0,8,5.34516Zm-3,5.528V9.624A1.997,1.997,0,0,1,6.52588,7.66883c6.30908-1.51527,12.604-.09638,18.69336,1.27651,5.99463,1.35186,11.6582,2.62837,17.37934,1.37636C43.92057,9.99936,46.261,12.1365,45,12.55917A20.68943,20.68943,0,0,1,41.09576,13.62C30.00439,15.032,18.81959,8.268,7.49805,10.43077ZM46,21.94725a6.01266,6.01266,0,0,1-6-6.01217c0-.06746.00787-.13284.01007-.19974-4.8399.4571-9.712-.63477-14.79034-1.77985-5.67359-1.2789-11.505-2.58972-17.3739-1.55118A5.98053,5.98053,0,0,1,9,15.93508a6.01266,6.01266,0,0,1-6,6.01217,5.97706,5.97706,0,0,1-1-.09051V38.33046a5.94945,5.94945,0,0,1,2-.35075,6.01267,6.01267,0,0,1,6,6.01218c0,.07167-.00824.14127-.01074.21234,4.82043-.44028,9.67346.66663,14.73144,1.82743,1.27533.29283,2.56562.586,3.86383.85665a13.05511,13.05511,0,0,1-4.23712-6.93763,10.01376,10.01376,0,1,1,9.01593-15.47089A12.91434,12.91434,0,0,1,48,30.06715V21.59651A5.9497,5.9497,0,0,1,46,21.94725ZM11,30.96551H9a1.002,1.002,0,0,1,0-2.00406h2a1.002,1.002,0,0,1,0,2.00406Z"/>
</g>
</svg>