<svg width="43" height="43" viewBox="0 0 43 43" fill="none" xmlns="http://www.w3.org/2000/svg">
<path d="M37.2891 33.2578H8.39844V7.05469C8.39844 6.86992 8.24727 6.71875 8.0625 6.71875H5.71094C5.52617 6.71875 5.375 6.86992 5.375 7.05469V35.9453C5.375 36.1301 5.52617 36.2812 5.71094 36.2812H37.2891C37.4738 36.2812 37.625 36.1301 37.625 35.9453V33.5938C37.625 33.409 37.4738 33.2578 37.2891 33.2578ZM12.0938 29.8984H14.4453C14.6301 29.8984 14.7812 29.7473 14.7812 29.5625V23.5156C14.7812 23.3309 14.6301 23.1797 14.4453 23.1797H12.0938C11.909 23.1797 11.7578 23.3309 11.7578 23.5156V29.5625C11.7578 29.7473 11.909 29.8984 12.0938 29.8984ZM18.4766 29.8984H20.8281C21.0129 29.8984 21.1641 29.7473 21.1641 29.5625V16.125C21.1641 15.9402 21.0129 15.7891 20.8281 15.7891H18.4766C18.2918 15.7891 18.1406 15.9402 18.1406 16.125V29.5625C18.1406 29.7473 18.2918 29.8984 18.4766 29.8984ZM24.8594 29.8984H27.2109C27.3957 29.8984 27.5469 29.7473 27.5469 29.5625V19.4004C27.5469 19.2156 27.3957 19.0645 27.2109 19.0645H24.8594C24.6746 19.0645 24.5234 19.2156 24.5234 19.4004V29.5625C24.5234 29.7473 24.6746 29.8984 24.8594 29.8984ZM31.2422 29.8984H33.5938C33.7785 29.8984 33.9297 29.7473 33.9297 29.5625V12.7656C33.9297 12.5809 33.7785 12.4297 33.5938 12.4297H31.2422C31.0574 12.4297 30.9062 12.5809 30.9062 12.7656V29.5625C30.9062 29.7473 31.0574 29.8984 31.2422 29.8984Z" fill="#005F15"/>
</svg>
