<svg width="45" height="45" viewBox="0 0 45 45" fill="none" xmlns="http://www.w3.org/2000/svg">
<path d="M13.3594 21.0938C13.7766 21.0938 14.1844 21.2175 14.5313 21.4492C14.8782 21.681 15.1485 22.0105 15.3082 22.3959C15.4678 22.7813 15.5096 23.2055 15.4282 23.6146C15.3468 24.0238 15.1459 24.3997 14.8509 24.6947C14.5559 24.9897 14.1801 25.1906 13.7709 25.272C13.3617 25.3534 12.9376 25.3116 12.5522 25.1519C12.1667 24.9923 11.8373 24.7219 11.6055 24.375C11.3737 24.0281 11.25 23.6203 11.25 23.2031C11.25 22.6437 11.4722 22.1072 11.8678 21.7116C12.2634 21.316 12.7999 21.0938 13.3594 21.0938ZM13.3594 18.2812C12.3859 18.2813 11.4343 18.5699 10.6249 19.1107C9.81553 19.6516 9.18468 20.4203 8.81216 21.3196C8.43963 22.219 8.34216 23.2086 8.53207 24.1633C8.72199 25.1181 9.19075 25.9951 9.87909 26.6834C10.5674 27.3718 11.4444 27.8405 12.3992 28.0304C13.3539 28.2203 14.3435 28.1229 15.2429 27.7503C16.1423 27.3778 16.9109 26.747 17.4518 25.9376C17.9926 25.1282 18.2813 24.1766 18.2813 23.2031C18.2813 21.8978 17.7627 20.6459 16.8397 19.7228C15.9166 18.7998 14.6647 18.2812 13.3594 18.2812Z" fill="#00B8E0"/>
<path d="M35.1562 19.6875H23.9062C23.1603 19.6875 22.445 19.9838 21.9175 20.5112C21.3901 21.0387 21.0938 21.7541 21.0938 22.5V30.9375H5.625V14.9062L22.5 5.82185L40.1203 15.3L41.4422 12.825L23.1609 2.98122C22.9575 2.87289 22.7305 2.81622 22.5 2.81622C22.2695 2.81622 22.0425 2.87289 21.8391 2.98122L3.55781 12.825C3.33326 12.9445 3.14536 13.1228 3.01411 13.3407C2.88285 13.5586 2.81318 13.8081 2.8125 14.0625V42.1875H5.625V33.75H39.375V42.1875H42.1875V26.7187C42.1875 24.8539 41.4467 23.0655 40.1281 21.7469C38.8095 20.4283 37.0211 19.6875 35.1562 19.6875ZM23.9062 30.9375V22.5H35.1562C36.2751 22.5 37.3482 22.9444 38.1394 23.7356C38.9305 24.5268 39.375 25.5998 39.375 26.7187V30.9375H23.9062Z" fill="#00B8E0"/>
</svg>
