<?xml version="1.0" ?>
<!-- Uploaded to: SVG Repo, www.svgrepo.com, Generator: SVG Repo Mixer Tools -->
<svg width="800px" height="800px" viewBox="0 0 512 512" id="Layer_1" version="1.1" xml:space="preserve" xmlns="http://www.w3.org/2000/svg" xmlns:xlink="http://www.w3.org/1999/xlink">
<style type="text/css">
	.st0{fill:#333333;}
</style>
<g>
<path class="st0" d="M387.4,110c-3.9,0-7-3.1-7-7s3.1-7,7-7h75.1l-31.7-51.9H81.2L49.5,96h75.1c3.9,0,7,3.1,7,7s-3.1,7-7,7H45.2   v51.3h421.6V110H387.4z M196.1,121.9l-16.1-8.5l-16.1,8.5l3.1-18l-13.1-12.7l18-2.6l8.1-16.3l8.1,16.3l18,2.6L193,104L196.1,121.9z    M272.1,121.9l-16.1-8.5l-16.1,8.5l3.1-18l-13.1-12.7l18-2.6l8.1-16.3l8.1,16.3l18,2.6L269.1,104L272.1,121.9z M348.2,121.9   l-16.1-8.5l-16.1,8.5l3.1-18l-13.1-12.7l18-2.6l8.1-16.3l8.1,16.3l18,2.6L345.1,104L348.2,121.9z"/>
<path class="st0" d="M294.8,395.6h127.3V175.3H89.9v220.3h127.3v-33h77.6V395.6z M186.8,327.7h-49.6v-44h49.6V327.7z M186.8,248.4   h-49.6v-44h49.6V248.4z M280.8,327.7h-49.6v-44h49.6V327.7z M280.8,248.4h-49.6v-44h49.6V248.4z M325.2,204.4h49.6v44h-49.6V204.4z    M325.2,283.7h49.6v44h-49.6V283.7z"/>
<rect class="st0" height="58.3" width="172" x="45.2" y="409.6"/>
<rect class="st0" height="58.3" width="172" x="294.8" y="409.6"/>
<polygon class="st0" points="436.1,395.6 466.8,395.6 466.8,216.8 436.1,208.3  "/>
<polygon class="st0" points="45.2,216.8 45.2,395.6 75.9,395.6 75.9,208.3  "/>
<rect class="st0" height="91.3" width="49.6" x="231.2" y="376.5"/>
</g>
</svg>