<svg width="75" height="56" viewBox="0 0 75 56" fill="none" xmlns="http://www.w3.org/2000/svg">
<path d="M4.35566 1.336H13.0437C14.5797 1.336 15.3477 1.952 15.3477 3.184C15.3477 3.616 15.1477 4.08 14.7477 4.576C14.0917 4.288 13.1477 4.144 11.9157 4.144H10.0197V16.528C10.0197 17.392 10.2837 17.96 10.8117 18.232C10.2037 18.92 9.46766 19.264 8.60366 19.264C7.03566 19.264 6.25166 18.312 6.25166 16.408V4.144H3.22766C1.69166 4.144 0.923656 3.528 0.923656 2.296C0.923656 1.864 1.12366 1.4 1.52366 0.904C2.17966 1.192 3.12366 1.336 4.35566 1.336ZM17.8056 16.408V8.896C17.8056 8.064 17.5336 7.504 16.9896 7.216C17.5976 6.528 18.3336 6.184 19.1976 6.184C20.6216 6.184 21.4056 6.952 21.5496 8.488C22.1896 6.952 23.2536 6.184 24.7416 6.184C25.4936 6.184 26.1096 6.408 26.5896 6.856C27.0856 7.304 27.3336 7.904 27.3336 8.656C27.3336 9.408 27.1416 10.008 26.7576 10.456C26.3896 10.888 25.8216 11.104 25.0536 11.104C24.9576 11.104 24.7496 11.088 24.4296 11.056C24.4936 10.768 24.5256 10.584 24.5256 10.504C24.5256 10.104 24.4056 9.792 24.1656 9.568C23.9416 9.328 23.6616 9.208 23.3256 9.208C22.4616 9.208 21.8776 9.864 21.5736 11.176V16.528C21.5736 17.392 21.8376 17.96 22.3656 18.232C21.7576 18.92 21.0216 19.264 20.1576 19.264C18.5896 19.264 17.8056 18.312 17.8056 16.408ZM32.8095 15.712C32.8095 16.496 33.2575 16.888 34.1535 16.888C34.8095 16.888 35.4015 16.584 35.9295 15.976V13.648C33.8495 13.76 32.8095 14.448 32.8095 15.712ZM39.6975 10.504V15.952C39.6975 16.96 40.1295 17.6 40.9935 17.872C40.7055 18.272 40.3135 18.608 39.8175 18.88C39.3375 19.136 38.8255 19.264 38.2815 19.264C37.0975 19.264 36.3615 18.736 36.0735 17.68C35.0815 18.736 33.8415 19.264 32.3535 19.264C31.2495 19.264 30.3695 18.992 29.7135 18.448C29.0575 17.904 28.7295 17.136 28.7295 16.144C28.7295 14.928 29.3615 13.96 30.6255 13.24C31.9055 12.504 33.6735 12.12 35.9295 12.088V9.808C35.9295 8.736 35.4975 8.2 34.6335 8.2C34.2815 8.2 33.9855 8.312 33.7455 8.536C33.5215 8.744 33.4095 9.032 33.4095 9.4C33.4095 9.752 33.5375 10.08 33.7935 10.384C33.2495 10.96 32.5615 11.248 31.7295 11.248C30.9135 11.248 30.3055 11.064 29.9055 10.696C29.5215 10.328 29.3295 9.848 29.3295 9.256C29.3295 8.36 29.8735 7.624 30.9615 7.048C32.0655 6.472 33.3455 6.184 34.8015 6.184C36.2735 6.184 37.4575 6.528 38.3535 7.216C39.2495 7.904 39.6975 9 39.6975 10.504ZM50.8176 9.256C50.9936 8.728 51.0816 8.248 51.0816 7.816C51.0816 7.368 50.9776 6.968 50.7696 6.616C51.3136 6.328 51.9216 6.184 52.5936 6.184C53.2816 6.184 53.8176 6.352 54.2016 6.688C54.5856 7.024 54.7776 7.44 54.7776 7.936C54.7776 8.432 54.6416 9.032 54.3696 9.736L51.8496 16.264C51.4496 17.336 51.0096 18.088 50.5296 18.52C50.0656 18.952 49.3616 19.168 48.4176 19.168C47.4896 19.168 46.7856 18.968 46.3056 18.568C45.8256 18.168 45.4176 17.4 45.0816 16.264L43.0176 9.232C42.7616 8.416 42.4256 7.864 42.0096 7.576C42.2016 7.176 42.5136 6.848 42.9456 6.592C43.3776 6.32 43.8336 6.184 44.3136 6.184C45.7376 6.184 46.6016 6.968 46.9056 8.536L48.4896 16.672L50.8176 9.256ZM62.8435 11.056C63.1315 11.024 63.3475 10.936 63.4915 10.792C63.6355 10.632 63.7075 10.336 63.7075 9.904C63.7075 9.472 63.5795 9.08 63.3235 8.728C63.0835 8.36 62.7475 8.176 62.3155 8.176C61.8835 8.176 61.4755 8.448 61.0915 8.992C60.7075 9.536 60.4515 10.328 60.3235 11.368L62.8435 11.056ZM63.2515 16.648C64.5795 16.648 65.6915 16.144 66.5875 15.136C66.9555 15.296 67.1395 15.632 67.1395 16.144C67.1395 16.912 66.6835 17.624 65.7715 18.28C64.8595 18.936 63.7875 19.264 62.5555 19.264C60.6515 19.264 59.1635 18.744 58.0915 17.704C57.0355 16.664 56.5075 15.176 56.5075 13.24C56.5075 11.288 57.0915 9.624 58.2595 8.248C59.4275 6.872 60.9075 6.184 62.6995 6.184C64.0755 6.184 65.2115 6.632 66.1075 7.528C67.0035 8.408 67.4515 9.416 67.4515 10.552C67.4515 11.432 67.2435 12.064 66.8275 12.448C66.4115 12.832 65.6995 13.04 64.6915 13.072L60.2515 13.192C60.3635 15.496 61.3635 16.648 63.2515 16.648ZM73.8158 3.04V16.528C73.8158 17.392 74.0798 17.96 74.6078 18.232C73.9998 18.92 73.2638 19.264 72.3998 19.264C70.8318 19.264 70.0478 18.312 70.0478 16.408V2.896C70.0478 2.096 69.7758 1.528 69.2318 1.192C69.8398 0.519999 70.5758 0.183999 71.4398 0.183999C73.0238 0.183999 73.8158 1.136 73.8158 3.04ZM28.7401 43.04V51.776C28.7401 52.928 29.0921 53.6853 29.7961 54.048C28.9855 54.9653 28.0255 55.424 26.9161 55.424C25.8068 55.424 24.9961 55.1147 24.4841 54.496C23.9721 53.8773 23.7161 52.9173 23.7161 51.616V49.888C22.5001 51.5307 20.6121 52.352 18.0521 52.352C15.5775 52.352 13.2948 51.456 11.2041 49.664C10.2015 48.7893 9.38013 47.6053 8.74013 46.112C8.12146 44.6187 7.81213 42.944 7.81213 41.088C7.81213 37.248 8.92146 34.1333 11.1401 31.744C13.3801 29.3333 16.5375 28.128 20.6121 28.128C22.8948 28.128 24.8361 28.5973 26.4361 29.536C28.0575 30.4747 28.8681 31.6053 28.8681 32.928C28.8681 33.696 28.5055 34.3467 27.7801 34.88C27.0761 35.392 26.2655 35.648 25.3481 35.648C24.4308 35.648 23.6095 35.424 22.8841 34.976C22.9055 34.7627 22.9161 34.56 22.9161 34.368C22.9161 33.408 22.6388 32.5973 22.0841 31.936C21.5295 31.2747 20.6975 30.944 19.5881 30.944C17.6468 30.944 16.1108 31.776 14.9801 33.44C13.7855 35.1467 13.1881 37.344 13.1881 40.032C13.1881 42.72 13.7428 44.8107 14.8521 46.304C15.9615 47.776 17.5188 48.512 19.5241 48.512C22.3188 48.512 23.7161 47.2213 23.7161 44.64V43.136H22.6921C21.5828 43.136 20.5801 43.1573 19.6841 43.2C19.3001 42.6453 19.1081 42.0053 19.1081 41.28C19.1081 40.5333 19.4815 40.0213 20.2281 39.744C20.9748 39.4453 22.2548 39.296 24.0681 39.296C25.8815 39.296 27.1081 39.584 27.7481 40.16C28.4095 40.736 28.7401 41.696 28.7401 43.04ZM40.4534 37.344C38.6187 37.344 37.7014 38.944 37.7014 42.144C37.7014 42.6133 37.7227 43.104 37.7654 43.616C38.0214 47.8187 39.1947 49.92 41.2854 49.92C43.12 49.92 44.0374 48.3093 44.0374 45.088C44.0374 44.64 44.016 44.1493 43.9734 43.616C43.6747 39.4347 42.5014 37.344 40.4534 37.344ZM34.9174 37.184C36.432 35.6693 38.416 34.912 40.8694 34.912C43.3227 34.912 45.3067 35.6693 46.8214 37.184C48.336 38.6773 49.0934 40.8213 49.0934 43.616C49.0934 46.4107 48.3254 48.5653 46.7894 50.08C45.2747 51.5947 43.2907 52.352 40.8374 52.352C38.4054 52.352 36.432 51.5947 34.9174 50.08C33.4027 48.5653 32.6454 46.4107 32.6454 43.616C32.6454 40.8213 33.4027 38.6773 34.9174 37.184ZM59.9846 37.344C58.15 37.344 57.2326 38.944 57.2326 42.144C57.2326 42.6133 57.254 43.104 57.2966 43.616C57.5526 47.8187 58.726 49.92 60.8166 49.92C62.6513 49.92 63.5686 48.3093 63.5686 45.088C63.5686 44.64 63.5473 44.1493 63.5046 43.616C63.206 39.4347 62.0326 37.344 59.9846 37.344ZM54.4486 37.184C55.9633 35.6693 57.9473 34.912 60.4006 34.912C62.854 34.912 64.838 35.6693 66.3526 37.184C67.8673 38.6773 68.6246 40.8213 68.6246 43.616C68.6246 46.4107 67.8566 48.5653 66.3206 50.08C64.806 51.5947 62.822 52.352 60.3686 52.352C57.9366 52.352 55.9633 51.5947 54.4486 50.08C52.934 48.5653 52.1766 46.4107 52.1766 43.616C52.1766 40.8213 52.934 38.6773 54.4486 37.184Z" fill="white"/>
</svg>
