<?xml version="1.0" encoding="utf-8"?>
<!-- Uploaded to: SVG Repo, www.svgrepo.com, Generator: SVG Repo Mixer Tools -->
<svg width="800px" height="800px" viewBox="0 0 1024 1024" fill="#000000" class="icon"  version="1.1" xmlns="http://www.w3.org/2000/svg"><path d="M581.728047 421.163079h93.591795v-93.591795h-93.591795z m0-187.183591h93.591795V140.387693h-93.591795z m-350.969233 233.979489v116.989744h93.591795v-116.989744z m608.34667-233.979489V0h-491.356926v274.925899l-70.193846-52.645385-233.979489 175.484616v276.563756a200.754401 200.754401 0 0 1 93.591796-25.503765V444.561028l140.387693-105.29077 140.387693 105.29077v206.369909a198.648586 198.648586 0 0 1 93.591795 39.542533V397.76513l-70.193846-52.645385V93.591795h304.173334v587.990455c4.211631 2.807754 8.423262 5.615508 12.400913 8.657241a197.946647 197.946647 0 0 1 81.190883-37.202739V327.571284h46.795898v321.253837a200.754401 200.754401 0 0 1 93.591795 25.503765V233.979488z m-257.377437 374.367182h93.591795v-93.591796h-93.591795zM979.493177 1023.660262a40.712431 40.712431 0 0 1-28.311518-11.231016L915.148818 977.332323a49.603652 49.603652 0 0 0-66.684155 0 131.964431 131.964431 0 0 1-179.462267 0 49.603652 49.603652 0 0 0-66.684154 0 131.964431 131.964431 0 0 1-179.462268 0 49.603652 49.603652 0 0 0-66.684154 0 131.964431 131.964431 0 0 1-179.462268 0 49.603652 49.603652 0 0 0-66.684154 0L72.822659 1012.429246a40.94641 40.94641 0 0 1-57.324974-59.43079l36.968759-35.096923a131.730452 131.730452 0 0 1 179.462267 0 49.603652 49.603652 0 0 0 66.684155 0 131.730452 131.730452 0 0 1 179.462267 0 49.603652 49.603652 0 0 0 66.684154 0 131.730452 131.730452 0 0 1 179.462268 0 49.603652 49.603652 0 0 0 66.684154 0 131.730452 131.730452 0 0 1 179.462268 0l38.372636 35.096923a40.94641 40.94641 0 0 1-28.311518 70.193847zM979.493177 859.87462a40.712431 40.712431 0 0 1-28.311518-11.231016L915.148818 813.546681a49.603652 49.603652 0 0 0-66.684155 0 131.964431 131.964431 0 0 1-179.462267 0 49.603652 49.603652 0 0 0-66.684154 0 131.964431 131.964431 0 0 1-179.462268 0 49.603652 49.603652 0 0 0-66.684154 0 131.964431 131.964431 0 0 1-179.462268 0 49.603652 49.603652 0 0 0-66.684154 0L72.822659 848.643604a40.94641 40.94641 0 0 1-57.324974-59.43079l36.968759-35.096923a131.730452 131.730452 0 0 1 179.462267 0 49.603652 49.603652 0 0 0 66.684155 0 131.730452 131.730452 0 0 1 179.462267 0 49.603652 49.603652 0 0 0 66.684154 0 131.730452 131.730452 0 0 1 179.462268 0 49.603652 49.603652 0 0 0 66.684154 0 131.730452 131.730452 0 0 1 179.462268 0l38.372636 35.096923a40.94641 40.94641 0 0 1-28.311518 70.193847z" /></svg>