<?xml version="1.0" encoding="iso-8859-1"?>
<!-- Uploaded to: SVG Repo, www.svgrepo.com, Generator: SVG Repo Mixer Tools -->
<svg fill="#000000" version="1.1" id="Layer_1" xmlns="http://www.w3.org/2000/svg" xmlns:xlink="http://www.w3.org/1999/xlink" 
	 viewBox="0 0 496 496" xml:space="preserve">
<g>
	<g>
		<g>
			<path d="M440.184,356.76L392,345.632v-20.12c11.696-10.496,19.928-24.72,22.808-40.824C435.592,268.096,448,242.664,448,216
				v-30.312c0-12.44-8.888-22.84-20.648-25.192c-19.704-34.536-58.752-53.464-98.568-47.312
				c-34.368,5.296-63.24,30.136-75.024,62.232c-3.328-7.56-10.12-13.264-18.408-14.92c-19.696-34.536-58.728-53.464-98.568-47.312
				c-41.752,6.44-75.464,41.68-80.168,83.8c-3.032,27.08,5.544,53.88,23.384,74.2V272c0,21.256,9.312,40.328,24,53.512v20.12
				L55.816,356.76C22.952,364.336,0,393.184,0,426.912V496h296h8h192v-69.088C496,393.184,473.048,364.336,440.184,356.76z M400,272
				c0,30.872-25.128,56-56,56s-56-25.128-56-56v-37.328c10.456,2.44,28.616,5.328,56,5.328c27.384,0,45.544-2.888,56-5.328V272z
				 M385.976,360.672l5.168,1.192l-11.536,40.376l-22.8-18.24L385.976,360.672z M344,373.76l-32-25.608V336.4
				c9.656,4.816,20.496,7.6,32,7.6c11.504,0,22.344-2.776,32-7.6v11.752L344,373.76z M264.52,198.76
				c3.912-35.072,31.96-64.408,66.696-69.768c34.496-5.328,68.192,11.832,83.968,42.648l2.24,4.36h4.888
				c5.344,0,9.688,4.344,9.688,9.688V216c0,16.512-5.824,32.448-16.008,45.136l-0.04-49.08l-11.056,4.568
				C404.72,216.704,386.552,224,344,224s-60.72-7.296-60.848-7.352L272,211.872v30.696C265.528,229.12,262.816,214,264.52,198.76z
				 M80,242.568C73.528,229.12,70.816,214,72.52,198.76c3.912-35.072,31.96-64.408,66.696-69.768
				c34.496-5.328,68.2,11.832,83.968,42.648l2.24,4.36h4.888c5.344,0,9.688,4.344,9.688,9.688V216c0,16.504-5.824,32.44-16,45.12
				V216h-8c-7.336,0-14.152-3.648-18.216-9.752l-12.536-18.808l-22.144,22.144c-4.144,4.136-9.632,6.416-15.488,6.416H80V242.568z
				 M96,272v-40h51.616c10.128,0,19.64-3.944,26.8-11.104l8.344-8.344l1.712,2.568c5.528,8.304,14,13.976,23.528,16.024V272
				c0,30.872-25.128,56-56,56S96,302.872,96,272z M184,336.4V352v6.368V368c0,17.648-14.352,32-32,32s-32-14.352-32-32v-9.632V352
				v-15.6c9.656,4.824,20.496,7.6,32,7.6C163.504,344,174.344,341.224,184,336.4z M288,480h-32v-32h-16v32H64v-32H48v32H16v-53.088
				c0-26.232,17.848-48.672,43.408-54.56L104,362.056V368c0,26.472,21.528,48,48,48s48-21.528,48-48v-5.944l44.592,10.288
				C270.152,378.24,288,400.68,288,426.912V480z M272.664,367.488l8.584-1.992l3.52,12.32
				C281.16,373.944,277.088,370.504,272.664,367.488z M296,345.632l-47.992,11.08L200,345.632v-20.12
				c11.696-10.496,19.928-24.72,22.808-40.824c14.856-11.856,25.376-28.216,30.176-46.344C257,250.352,263.48,261.48,272,271.184
				V272c0,21.256,9.312,40.328,24,53.512V345.632z M302.032,360.68l29.16,23.32l-22.808,18.24l-11.528-40.36L302.032,360.68z
				 M480,480h-32v-32h-16v32H304v-53.088c0-0.216-0.024-0.432-0.024-0.648L344,394.24l44.392,35.512l18.368-64.288l29.832,6.888
				C462.152,378.24,480,400.68,480,426.912V480z"/>
			<rect x="96" y="32" width="16" height="16"/>
			<path d="M357.656,2.344l-11.312,11.312L364.688,32h-66.304C289.176,12.696,269.68,0,248,0s-41.176,12.696-50.384,32H128v16
				h275.312L357.656,2.344z M216.08,32c7.424-9.872,19.168-16,31.92-16s24.496,6.128,31.92,16H216.08z"/>
			<rect x="384" y="64" width="16" height="16"/>
			<path d="M149.656,98.344L131.312,80h66.304c9.2,19.304,28.696,32,50.384,32s41.176-12.696,50.384-32H368V64H92.688l45.656,45.656
				L149.656,98.344z M279.928,80c-7.432,9.872-19.176,16-31.928,16s-24.496-6.128-31.92-16H279.928z"/>
		</g>
	</g>
</g>
</svg>