<svg width="46" height="28" viewBox="0 0 46 28" fill="none" xmlns="http://www.w3.org/2000/svg">
<path d="M44.3571 10.9036C44.7929 10.9036 45.2107 10.76 45.5188 10.5044C45.8269 10.2488 46 9.90215 46 9.54067V2.72591C46 2.00295 45.6538 1.30961 45.0376 0.7984C44.4214 0.287193 43.5857 0 42.7143 0H3.28571C2.41429 0 1.57855 0.287193 0.962363 0.7984C0.346172 1.30961 0 2.00295 0 2.72591V9.54067C0 9.90215 0.173086 10.2488 0.481182 10.5044C0.789277 10.76 1.20714 10.9036 1.64286 10.9036C2.51428 10.9036 3.35002 11.1908 3.96621 11.702C4.5824 12.2132 4.92857 12.9066 4.92857 13.6295C4.92857 14.3525 4.5824 15.0458 3.96621 15.557C3.35002 16.0682 2.51428 16.3554 1.64286 16.3554C1.20714 16.3554 0.789277 16.499 0.481182 16.7546C0.173086 17.0102 0 17.3569 0 17.7184V24.5332C0 25.2561 0.346172 25.9495 0.962363 26.4607C1.57855 26.9719 2.41429 27.2591 3.28571 27.2591H42.7143C43.5857 27.2591 44.4214 26.9719 45.0376 26.4607C45.6538 25.9495 46 25.2561 46 24.5332V17.7184C46 17.3569 45.8269 17.0102 45.5188 16.7546C45.2107 16.499 44.7929 16.3554 44.3571 16.3554C43.4857 16.3554 42.65 16.0682 42.0338 15.557C41.4176 15.0458 41.0714 14.3525 41.0714 13.6295C41.0714 12.9066 41.4176 12.2132 42.0338 11.702C42.65 11.1908 43.4857 10.9036 44.3571 10.9036ZM42.7143 18.9042V24.5332H31.2143V20.4443H27.9286V24.5332H3.28571V18.9042C4.69199 18.5992 5.93673 17.9161 6.82512 16.9617C7.71351 16.0073 8.19542 14.8354 8.19542 13.6295C8.19542 12.4237 7.71351 11.2518 6.82512 10.2974C5.93673 9.34297 4.69199 8.65984 3.28571 8.3549V2.72591H27.9286V6.81477H31.2143V2.72591H42.7143V8.3549C41.308 8.65984 40.0633 9.34297 39.1749 10.2974C38.2865 11.2518 37.8046 12.4237 37.8046 13.6295C37.8046 14.8354 38.2865 16.0073 39.1749 16.9617C40.0633 17.9161 41.308 18.5992 42.7143 18.9042Z" fill="#32DF8F"/>
</svg>
