<?xml version="1.0" encoding="iso-8859-1"?>
<!-- Uploaded to: SVG Repo, www.svgrepo.com, Generator: SVG Repo Mixer Tools -->
<svg fill="#000000" height="800px" width="800px" version="1.1" id="Layer_1" xmlns="http://www.w3.org/2000/svg" xmlns:xlink="http://www.w3.org/1999/xlink" 
	 viewBox="0 0 512 512" xml:space="preserve">
<g>
	<g>
		<path d="M161.346,325.704v127.743c0,6.667,5.405,12.072,12.072,12.072c6.667,0,12.072-5.404,12.072-12.072V325.704H161.346z"/>
	</g>
</g>
<g>
	<g>
		<path d="M326.16,325.704v127.743h-0.001c0,6.667,5.404,12.072,12.072,12.072c6.668,0,12.072-5.404,12.072-12.072V325.704H326.16z"
			/>
	</g>
</g>
<g>
	<g>
		<path d="M205.694,325.704v145.62h-0.001c0,12.708,10.301,23.01,23.01,23.01s23.01-10.301,23.01-23.01v-145.62H205.694z"/>
	</g>
</g>
<g>
	<g>
		<path d="M261.647,325.704v145.62h-0.001c0,12.708,10.301,23.01,23.01,23.01c12.708,0,23.01-10.301,23.01-23.01v-145.62H261.647z"
			/>
	</g>
</g>
<g>
	<g>
		<circle cx="256.67" cy="98.495" r="39.739"/>
	</g>
</g>
<g>
	<g>
		<path d="M380.116,2.176c-9.39-4.896-20.971-1.251-25.867,8.138L280.96,150.897c-9.063,0-67.978,0-74.824,0
			c-19.633,0-37.743,11.469-46.134,29.221c-3.623,7.664-25.287,53.492-28.34,59.952c-5.994,12.676,3.257,27.369,17.335,27.367
			c0.016,0,0.032,0,0.048,0l73.748-0.185c10.59-0.026,19.153-8.632,19.126-19.222c-0.027-10.574-8.606-19.126-19.173-19.126
			c-0.017,0-0.033,0-0.049,0l-43.392,0.108c8.658-18.314,6.823-14.433,15.366-32.505c0.051-0.107,0.103-0.214,0.157-0.32
			c1.203-2.368,3.872-3.6,6.454-2.981c2.582,0.619,4.401,2.929,4.401,5.585v12.588l16.97-0.042c0.031,0,0.062,0,0.094,0
			c20.25,0,36.688,16.388,36.739,36.649c0.018,7.136-2.006,13.797-5.513,19.444h53.273v-85.008
			c2.008-2.383-4.062,8.799,81.008-154.379C393.15,18.652,389.506,7.07,380.116,2.176z"/>
	</g>
</g>
<g>
	<g>
		<path d="M445.925,284.938c-7.281,0-377.56,0-379.851,0c-6.422,0-11.627,5.206-11.627,11.627s5.206,11.629,11.627,11.629H78.59
			v185.96c0,9.856,7.99,17.846,17.846,17.846c9.856,0,17.846-7.99,17.846-17.846v-185.96c12.719,0,271.305,0,284.484,0v185.96
			c0,9.856,7.99,17.846,17.846,17.846s17.846-7.99,17.846-17.846v-185.96h11.467c6.422,0,11.627-5.206,11.627-11.629
			C457.553,290.145,452.346,284.938,445.925,284.938z"/>
	</g>
</g>
</svg>